<mxfile host="af1e3ad7-af81-4195-a9c7-957ae8d8c44d" modified="2020-08-28T03:35:55.950Z" agent="5.0 (Windows NT 10.0; WOW64) AppleWebKit/537.36 (KHTML, like Gecko) Code/1.48.2 Chrome/78.0.3904.130 Electron/7.3.2 Safari/537.36" etag="-qFuaEwjqfOK2ZfHrXKX" version="13.1.3">
    <diagram id="6hGFLwfOUW9BJ-s0fimq" name="Page-1">
        <mxGraphModel dx="976" dy="512" grid="1" gridSize="10" guides="1" tooltips="1" connect="1" arrows="1" fold="1" page="1" pageScale="1" pageWidth="827" pageHeight="1169" math="0" shadow="0">
            <root>
                <mxCell id="0"/>
                <mxCell id="1" parent="0"/>
                <mxCell id="2" value="a&lt;br&gt;b" style="whiteSpace=wrap;html=1;aspect=fixed;" vertex="1" parent="1">
                    <mxGeometry x="360" y="170" width="150" height="150" as="geometry"/>
                </mxCell>
                <mxCell id="3" value="c&lt;br&gt;0 -200px" style="whiteSpace=wrap;html=1;aspect=fixed;" vertex="1" parent="1">
                    <mxGeometry x="360" y="20" width="150" height="150" as="geometry"/>
                </mxCell>
                <mxCell id="4" value="e&lt;br&gt;-200ox 0" style="whiteSpace=wrap;html=1;aspect=fixed;" vertex="1" parent="1">
                    <mxGeometry x="510" y="170" width="150" height="150" as="geometry"/>
                </mxCell>
                <mxCell id="5" value="d&lt;br&gt;-200px 0" style="whiteSpace=wrap;html=1;aspect=fixed;" vertex="1" parent="1">
                    <mxGeometry x="210" y="170" width="150" height="150" as="geometry"/>
                </mxCell>
                <mxCell id="6" value="f&lt;br&gt;0 -200px" style="whiteSpace=wrap;html=1;aspect=fixed;" vertex="1" parent="1">
                    <mxGeometry x="360" y="320" width="150" height="150" as="geometry"/>
                </mxCell>
            </root>
        </mxGraphModel>
    </diagram>
</mxfile>